# xmcd
#
# Track frame offsets:
#	150
#	8738
#	24989
#	36132
#	47156
#	61782
#	75189
#	85868
#	99287
#	111643
#	122661
#	133964
#
# Disc length: 1877 seconds
# Revision: 2
# Processed by: cddbd v1.5.2PL0 Copyright (c) Steve Scherf et al.
# Submitted via: dBpowerAMP V12.0
#
DISCID=8d07530c
DTITLE=Waylon Jennings - Analog Pearls Vol. 1
DYEAR=2014
DGENRE=Country
TTITLE0=Stepping Stone
TTITLE1=The Real House Of The Rising Sun
TTITLE2=Just To Satisfy You
TTITLE3=Kisses Sweeter Than Wine
TTITLE4=Unchained Melody
TTITLE5=Four Strong Winds
TTITLE6=Sing The Girls A Saong, Bill
TTITLE7=Don't Thinak Twice It's Alright
TTITLE8=River Boy
TTITLE9=The 12th Of Never
TTITLE10=Sally Was A Good Old Girl
TTITLE11=Charlie Lay Down The Gun
EXTD=
EXTT0=
EXTT1=
EXTT2=
EXTT3=
EXTT4=
EXTT5=
EXTT6=
EXTT7=
EXTT8=
EXTT9=
EXTT10=
EXTT11=
PLAYORDER=
